<?xml version="1.0" encoding="UTF-8" standalone="no"?>
<!-- Generator: Adobe Illustrator 19.0.0, SVG Export Plug-In . SVG Version: 6.00 Build 0)  -->

<svg
   xmlns:dc="http://purl.org/dc/elements/1.1/"
   xmlns:cc="http://creativecommons.org/ns#"
   xmlns:rdf="http://www.w3.org/1999/02/22-rdf-syntax-ns#"
   xmlns:svg="http://www.w3.org/2000/svg"
   xmlns="http://www.w3.org/2000/svg"
   xmlns:sodipodi="http://sodipodi.sourceforge.net/DTD/sodipodi-0.dtd"
   xmlns:inkscape="http://www.inkscape.org/namespaces/inkscape"
   version="1.1"
   id="Capa_1"
   x="0px"
   y="0px"
   viewBox="0 0 512 390"
   xml:space="preserve"
   sodipodi:docname="mail.svg"
   width="512"
   height="390"
   inkscape:version="0.92.4 (5da689c313, 2019-01-14)"><metadata
   id="metadata61"><rdf:RDF><cc:Work
       rdf:about=""><dc:format>image/svg+xml</dc:format><dc:type
         rdf:resource="http://purl.org/dc/dcmitype/StillImage" /></cc:Work></rdf:RDF></metadata><defs
   id="defs59" /><sodipodi:namedview
   pagecolor="#ffffff"
   bordercolor="#666666"
   borderopacity="1"
   objecttolerance="10"
   gridtolerance="10"
   guidetolerance="10"
   inkscape:pageopacity="0"
   inkscape:pageshadow="2"
   inkscape:window-width="640"
   inkscape:window-height="480"
   id="namedview57"
   showgrid="false"
   inkscape:zoom="0.4609375"
   inkscape:cx="256"
   inkscape:cy="195"
   inkscape:window-x="0"
   inkscape:window-y="0"
   inkscape:window-maximized="0"
   inkscape:current-layer="Capa_1" />
<g
   id="g6"
   transform="translate(0,-61)">
	<g
   id="g4">
		<path
   d="M 467,61 H 45 c -6.927,0 -13.412,1.703 -19.279,4.51 L 255,294.789 306.389,245.402 c 0,0 0.004,-0.005 0.005,-0.007 10e-4,-0.002 0.005,-0.004 0.005,-0.004 L 486.286,65.514 C 480.418,62.705 473.929,61 467,61 Z"
   id="path2"
   inkscape:connector-curvature="0" />
	</g>
</g>
<g
   id="g12"
   transform="translate(0,-61)">
	<g
   id="g10">
		<path
   d="M 507.496,86.728 338.213,256.002 507.49,425.279 C 510.297,419.412 512,412.927 512,406 V 106 c 0,-6.923 -1.699,-13.407 -4.504,-19.272 z"
   id="path8"
   inkscape:connector-curvature="0" />
	</g>
</g>
<g
   id="g18"
   transform="translate(0,-61)">
	<g
   id="g16">
		<path
   d="M 4.51,86.721 C 1.703,92.588 0,99.073 0,106 v 300 c 0,6.923 1.701,13.409 4.506,19.274 L 173.789,256 Z"
   id="path14"
   inkscape:connector-curvature="0" />
	</g>
</g>
<g
   id="g24"
   transform="translate(0,-61)">
	<g
   id="g22">
		<path
   d="m 317.002,277.213 -51.396,49.393 c -2.93,2.93 -6.768,4.395 -10.605,4.395 -3.837,0 -7.676,-1.465 -10.605,-4.395 L 195,277.211 25.714,446.486 C 31.582,449.295 38.071,451 45,451 h 422 c 6.927,0 13.412,-1.703 19.279,-4.51 z"
   id="path20"
   inkscape:connector-curvature="0" />
	</g>
</g>
<g
   id="g26"
   transform="translate(0,-61)">
</g>
<g
   id="g28"
   transform="translate(0,-61)">
</g>
<g
   id="g30"
   transform="translate(0,-61)">
</g>
<g
   id="g32"
   transform="translate(0,-61)">
</g>
<g
   id="g34"
   transform="translate(0,-61)">
</g>
<g
   id="g36"
   transform="translate(0,-61)">
</g>
<g
   id="g38"
   transform="translate(0,-61)">
</g>
<g
   id="g40"
   transform="translate(0,-61)">
</g>
<g
   id="g42"
   transform="translate(0,-61)">
</g>
<g
   id="g44"
   transform="translate(0,-61)">
</g>
<g
   id="g46"
   transform="translate(0,-61)">
</g>
<g
   id="g48"
   transform="translate(0,-61)">
</g>
<g
   id="g50"
   transform="translate(0,-61)">
</g>
<g
   id="g52"
   transform="translate(0,-61)">
</g>
<g
   id="g54"
   transform="translate(0,-61)">
</g>
</svg>