<?xml version="1.0" encoding="utf-8"?><svg xmlns="http://www.w3.org/2000/svg" xmlns:xlink="http://www.w3.org/1999/xlink"><symbol viewBox="0 0 24 24" id="discord" xmlns="http://www.w3.org/2000/svg"><path d="M3.58 21.196h14.259l-.681-2.205 1.629 1.398 1.493 1.338L23 24V2.475C22.932 1.137 21.78 0 20.352 0L3.585.003C2.158.003 1 1.142 1 2.48v16.24c0 1.411 1.156 2.476 2.58 2.476zM14.128 5.683l-.033.012.012-.012zM6.497 6.952c1.833-1.334 3.532-1.27 3.532-1.27l.137.135c-2.243.535-3.26 1.537-3.26 1.537s.272-.133.747-.336c3.021-1.188 6.32-1.102 9.374.402 0 0-1.019-.937-3.124-1.537l.186-.183c.291.001 1.831.055 3.479 1.26 0 0 1.844 3.15 1.844 7.02-.061-.074-1.144 1.666-3.931 1.726 0 0-.472-.534-.808-1 1.63-.468 2.24-1.404 2.24-1.404-.535.337-1.023.537-1.419.737-.609.268-1.219.4-1.828.535-2.884.468-4.503-.315-6.033-.936l-.523-.266s.609.936 2.174 1.404a22.262 22.262 0 00-.818 1.002c-2.786-.066-3.802-1.806-3.802-1.806 0-3.876 1.833-7.02 1.833-7.02z"/><path d="M14.308 12.771c.711 0 1.29-.6 1.29-1.34 0-.735-.576-1.335-1.29-1.335v.003c-.708 0-1.288.598-1.29 1.338 0 .734.579 1.334 1.29 1.334zm-4.618 0c.711 0 1.29-.6 1.29-1.34 0-.735-.575-1.335-1.286-1.335l-.004.003c-.711 0-1.29.598-1.29 1.338 0 .734.579 1.334 1.29 1.334z"/></symbol><symbol viewBox="0 0 512 390" id="mail" xmlns="http://www.w3.org/2000/svg"><path d="M467 0H45c-6.927 0-13.412 1.703-19.279 4.51L255 233.789l51.389-49.387.005-.007.005-.004L486.286 4.514C480.418 1.705 473.929 0 467 0zm40.496 25.728L338.213 195.002 507.49 364.279c2.807-5.867 4.51-12.352 4.51-19.279V45c0-6.923-1.699-13.407-4.504-19.272zM4.51 25.721C1.703 31.588 0 38.073 0 45v300c0 6.923 1.701 13.409 4.506 19.274L173.789 195z"/><path d="M317.002 216.213l-51.396 49.393a14.952 14.952 0 01-10.605 4.395 14.95 14.95 0 01-10.605-4.395L195 216.211 25.714 385.486C31.582 388.295 38.071 390 45 390h422c6.927 0 13.412-1.703 19.279-4.51z"/></symbol><symbol viewBox="0 0 512 512" id="menu" xmlns="http://www.w3.org/2000/svg"><path d="M492 276H20c-11.046 0-20-8.954-20-20s8.954-20 20-20h472c11.046 0 20 8.954 20 20s-8.954 20-20 20zM492 116H20c-11.046 0-20-8.954-20-20s8.954-20 20-20h472c11.046 0 20 8.954 20 20s-8.954 20-20 20zM492 436H20c-11.046 0-20-8.954-20-20s8.954-20 20-20h472c11.046 0 20 8.954 20 20s-8.954 20-20 20z"/></symbol><symbol viewBox="0 0 0 0" id="sprite" xmlns="http://www.w3.org/2000/svg"/><symbol viewBox="0 0 26 26" id="vk" xmlns="http://www.w3.org/2000/svg"><path fill-rule="evenodd" d="M21.27 0H5.465C2.66 0 0 2.2 0 5v15.813C0 23.613 2.66 26 5.465 26h15.808C24.074 26 26 23.613 26 20.812V5c0-2.8-1.926-5-4.73-5zm-.957 15.008c1.421 1.32 1.718 1.965 1.765 2.043.59.98-.652 1.054-.652 1.054l-2.375.036s-.512.101-1.184-.364c-.89-.605-1.726-2.191-2.383-1.988-.66.211-.64 1.64-.64 1.64s.004.25-.145.415c-.164.172-.484.156-.484.156h-1.067s-2.347.195-4.414-1.957C6.48 13.695 4.492 9.066 4.492 9.066s-.113-.293.008-.441c.14-.164.523-.172.523-.172l2.543-.012s.239.043.41.168c.141.102.223.297.223.297s.41 1.043.953 1.98c1.063 1.837 1.559 2.239 1.918 2.044.528-.29.367-2.594.367-2.594s.012-.84-.265-1.215c-.211-.285-.61-.371-.79-.394-.144-.02.095-.352.4-.5.456-.223 1.265-.239 2.218-.227.742.008.957.055 1.246.125.879.21.582 1.027.582 2.988 0 .63-.113 1.512.34 1.805.195.125.672.02 1.86-2.004.566-.96.988-2.086.988-2.086s.093-.203.238-.289c.148-.086.348-.059.348-.059l2.675-.02s.801-.093.934.27c.137.38-.3 1.27-1.395 2.727-1.796 2.39-1.996 2.168-.503 3.55z"/></symbol><symbol viewBox="0 0 512 512" id="xgm" xmlns="http://www.w3.org/2000/svg"><path d="M499.953 197.703l-39.351-8.555a214.162 214.162 0 00-12.664-30.539l21.785-33.886a15.302 15.302 0 00-2.051-19.09l-61.305-61.305a15.302 15.302 0 00-19.09-2.05l-33.886 21.785a214.162 214.162 0 00-30.54-12.665l-8.554-39.351A15.298 15.298 0 00299.347 0h-86.695a15.298 15.298 0 00-14.949 12.047l-8.555 39.351a214.162 214.162 0 00-30.539 12.664l-33.886-21.785a15.302 15.302 0 00-19.09 2.051l-61.305 61.305a15.302 15.302 0 00-2.05 19.09l21.785 33.886a214.162 214.162 0 00-12.665 30.54l-39.351 8.554A15.301 15.301 0 000 212.653v86.695a15.301 15.301 0 0012.047 14.949l39.351 8.555a214.162 214.162 0 0012.665 30.539l-21.786 33.886a15.302 15.302 0 002.051 19.09l61.305 61.305a15.302 15.302 0 0019.09 2.05l33.886-21.785a214.162 214.162 0 0030.54 12.665l8.554 39.351A15.298 15.298 0 00212.653 512h86.695a15.298 15.298 0 0014.949-12.047l8.555-39.351a214.162 214.162 0 0030.539-12.665l33.886 21.786a15.297 15.297 0 0019.09-2.051l61.305-61.305a15.302 15.302 0 002.05-19.09l-21.784-33.886a214.162 214.162 0 0012.664-30.54l39.351-8.554A15.301 15.301 0 00512 299.347v-86.695a15.301 15.301 0 00-12.047-14.949zM347.793 256c0 50.613-41.18 91.793-91.793 91.793s-91.793-41.18-91.793-91.793 41.18-91.793 91.793-91.793 91.793 41.18 91.793 91.793zm0 0"/></symbol><symbol viewBox="0 -61 512 390" id="youtube" xmlns="http://www.w3.org/2000/svg"><path d="M437-61H75C33.648-61 0-27.352 0 14v240c0 41.352 33.648 75 75 75h362c41.352 0 75-33.648 75-75V14c0-41.352-33.648-75-75-75zM181 237.418V33.512l180.496 100.27zm0 0"/><path d="M211 84.488v101.106l89.504-51.375zm0 0"/></symbol></svg>